<?xml version="1.0" encoding="iso-8859-1"?>
<svg fill="#F00000" height="800px" width="800px" version="1.1"
     xmlns="http://www.w3.org/2000/svg" viewBox="0 0 297 297" xml:space="preserve">
  <g>
    <path fill="#F00000" d="M148.5,0C87.43,0,37.747,45.703,37.747,110.797c0,91.026,99.729,179.905,103.976,183.645
      c1.936,1.705,4.356,2.559,6.777,2.559c2.421,0,4.841-0.853,6.778-2.559c4.245-3.739,103.975-92.618,103.975-183.645
      C259.253,49.703,209.57,0,148.5,0z M148.5,272.689c-22.049-21.366-90.243-93.029-90.243-161.892
      c0-49.784,40.483-90.287,90.243-90.287s90.243,40.503,90.243,90.287C238.743,179.659,170.549,251.322,148.5,272.689z"/>
    
    <path fill="#F00000" d="M148.5,21c-49.76,0-90.243,40.503-90.243,90.287c0,68.863,68.194,140.526,90.243,161.892
      c22.049-21.366,90.243-93.029,90.243-161.892C238.743,61.503,198.26,21,148.5,21z"/>
    
    <circle cx="148.5" cy="110.8" r="51.3" fill="#ffffff" />
    
  </g>
</svg>
